<svg width="872" height="512" viewBox="0 0 872 512" fill="none" xmlns="http://www.w3.org/2000/svg">
<path d="M256 512C114.616 512 0 397.384 0 256C0 114.616 114.616 0 256 0" fill="#FFDA44"/>
<path d="M289.391 0C430.775 0 545.391 114.616 545.391 256C545.391 397.384 430.775 512 289.391 512C289.391 500.87 256 256 256 256L289.391 0Z" fill="#F0F0F0"/>
<path d="M598.901 222.763L647.012 286.409C639.432 297.887 639.472 313.351 648.239 324.948C659.359 339.659 680.3 342.571 695.012 331.45C709.723 320.33 712.635 299.389 701.513 284.678C692.748 273.081 677.88 268.825 664.77 272.987L589.789 173.794L572.031 187.218L545.391 207.352L572.239 242.867L598.901 222.763ZM668.164 295.933C673.068 292.225 680.049 293.197 683.756 298.099C687.462 303.003 686.493 309.984 681.589 313.692C676.686 317.397 669.705 316.429 665.999 311.524C662.29 306.62 663.261 299.639 668.164 295.933Z" fill="#ACABB1"/>
<path d="M844.298 242.869L871.146 207.354L844.508 187.218L826.75 173.794L751.769 272.987C738.661 268.825 723.792 273.082 715.026 284.678C703.904 299.39 706.816 320.33 721.527 331.45C736.239 342.57 757.179 339.659 768.299 324.948C777.065 313.351 777.105 297.887 769.526 286.409L817.637 222.763L844.298 242.869ZM750.541 311.526C746.835 316.431 739.855 317.4 734.951 313.694C730.047 309.986 729.077 303.005 732.784 298.101C736.49 293.199 743.471 292.227 748.376 295.935C753.279 299.642 754.248 306.623 750.541 311.526Z" fill="#FFDA44"/>
</svg>
